# xmcd
#
# Track frame offsets:
#	183
#	12975
#	25898
#	38733
#	51430
#	64653
#	78395
#	91873
#	103223
#	115955
#	129428
#	140608
#	153890
#	168285
#	180453
#	192198
#	204963
#	217090
#	230333
#	242060
#	253120
#	267350
#	277610
#	288403
#	298855
#	311388
#
# Disc length: 4337 seconds
#
# Revision: 5
# Processed by: cddbd v1.5.2PL0 Copyright (c) Steve Scherf et al.
# Submitted via: audiograbber 1.83.01
#
DISCID=7110ef1a
DTITLE=Sampler Country - Capitol country music classics 1940's
DYEAR=1949
DGENRE=Country
TTITLE0=Ritter, Tex - (I've got spurs that) Jingle, jangle, jingle
TTITLE1=Willing, Foy - Texas blues
TTITLE2=Ritter, Tex - I'm waisting my tears on you
TTITLE3=Guthrie, Jack - Oklahoma Hills
TTITLE4=Tuttle, Wesley - With tears in my eyes
TTITLE5=Travis, Merle - Divorce me C.O.D.
TTITLE6=Travis, Merle - So round, so firm, so fully packed
TTITLE7=Guthrie, Jack and Oklahomas - Oakie boogie
TTITLE8=Stone, Cliffie - Silver stars, purple sage, eyes of blue
TTITLE9=Williams, Tex - Smoke! Smoke! Smoke! (that cigarette)
TTITLE10=Thompson, Hank - Humpty dumpty heart
TTITLE11=Stone, Cliffie - Peepin' through the keyhole
TTITLE12=Ritter, Tex - Rye Whiskey
TTITLE13=Red Ingle and Natural Seven - Cigareets, whusky and wild, wild woman
TTITLE14=Hogsed, Roy - Cocaine blues
TTITLE15=Wakely, Jimmy - One has my name (the other has my heart)
TTITLE16=Rivers, Jack - Dear Oakie
TTITLE17=Williams, Tex - Life gits tee-jus, don't it
TTITLE18=Kirk, Eddie and The String Band - Candy kisses
TTITLE19=Ford, Tennessee Ernie - Tennessee border
TTITLE20=Duncan, Tommy - Gamblin' polka dot blues
TTITLE21=Whitting, Margaret and Jimmy Wakely - Slipping around
TTITLE22=Thompson, Hank - Whoa sailor
TTITLE23=Jones, Ann - Give me a hundred reasons
TTITLE24=Payne, Leon - I love you because
TTITLE25=Ford, Tennessee Ernie - Mule train
EXTD=
EXTT0=
EXTT1=
EXTT2=
EXTT3=
EXTT4=
EXTT5=
EXTT6=
EXTT7=
EXTT8=
EXTT9=
EXTT10=
EXTT11=
EXTT12=
EXTT13=
EXTT14=
EXTT15=
EXTT16=
EXTT17=
EXTT18=
EXTT19=
EXTT20=
EXTT21=
EXTT22=
EXTT23=
EXTT24=
EXTT25=
PLAYORDER=
